<?xml version="1.0" standalone="no"?>
<!DOCTYPE svg PUBLIC "-//W3C//DTD SVG 20010904//EN"
 "http://www.w3.org/TR/2001/REC-SVG-20010904/DTD/svg10.dtd">
<svg version="1.0" xmlns="http://www.w3.org/2000/svg"
 width="659.000000pt" height="475.000000pt" viewBox="0 0 659.000000 475.000000"
 preserveAspectRatio="xMidYMid meet">

<g transform="translate(0.000000,475.000000) scale(0.100000,-0.100000)"
fill="#000000" stroke="none">
<path d="M2821 4579 c-51 -11 -111 -29 -133 -40 -29 -15 -43 -17 -53 -9 -19
15 -87 -2 -144 -38 -26 -16 -68 -32 -95 -35 -60 -9 -122 -45 -180 -107 -25
-27 -48 -45 -51 -39 -4 5 -4 13 -1 17 10 17 -12 35 -37 28 -55 -13 -116 -83
-153 -174 l-22 -55 -20 47 c-12 25 -25 46 -31 46 -17 0 -90 -91 -96 -121 -8
-34 -13 -36 -31 -11 -12 16 -15 14 -49 -18 -40 -38 -75 -98 -75 -129 0 -28
-17 -35 -25 -11 -9 29 -18 25 -69 -31 -32 -35 -48 -63 -52 -90 -7 -41 -13 -46
-31 -28 -8 8 -18 1 -36 -23 -43 -57 -59 -100 -65 -165 -2 -35 -7 -63 -10 -63
-3 0 -18 12 -33 26 -16 15 -32 23 -39 19 -18 -11 -66 -122 -79 -183 -6 -29
-11 -74 -11 -99 l0 -46 -21 27 c-12 15 -25 24 -29 19 -17 -17 -50 -180 -50
-242 0 -36 6 -99 14 -139 l14 -72 -39 35 c-22 19 -43 35 -49 35 -18 0 -49 -76
-55 -136 -10 -92 21 -219 92 -382 4 -10 -1 -11 -20 -7 -23 6 -26 3 -33 -30
-11 -60 3 -125 45 -208 32 -64 38 -83 30 -104 -29 -76 6 -192 96 -319 l46 -64
-55 0 c-31 0 -56 -2 -56 -5 0 -22 99 -202 132 -240 44 -49 144 -105 190 -105
48 0 -6 -18 -76 -25 -114 -12 -115 -13 -61 -72 54 -61 98 -90 170 -112 l54
-17 -36 -34 c-41 -40 -88 -133 -79 -156 5 -13 21 -15 91 -13 73 3 84 2 79 -11
-14 -34 -34 -104 -34 -122 0 -14 8 -18 35 -18 39 0 42 -5 19 -31 -18 -21 -21
-71 -5 -113 21 -54 76 -118 146 -170 86 -65 129 -88 223 -116 65 -20 78 -21
117 -10 44 12 60 26 163 143 18 20 36 37 41 37 5 0 33 -11 63 -24 103 -46 271
-88 488 -122 163 -26 578 -27 735 -1 235 39 369 73 494 125 l63 26 32 -35 c17
-19 51 -58 76 -86 55 -61 103 -79 174 -63 242 54 483 297 401 406 -20 27 -19
34 10 34 30 0 30 2 5 82 -11 34 -20 65 -20 68 0 3 36 4 80 2 67 -3 81 -1 86
13 11 29 -14 88 -60 141 l-44 50 46 13 c64 17 131 61 180 120 l42 49 -28 6
c-15 3 -52 8 -82 11 -95 11 -98 15 -27 39 78 26 126 61 168 122 32 47 99 184
99 203 0 6 -21 11 -50 11 -27 0 -50 2 -50 5 0 3 16 26 37 52 85 111 132 264
100 323 -12 22 -11 29 8 60 78 128 98 290 35 282 -18 -2 -21 1 -15 15 68 170
100 303 91 369 -7 50 -44 144 -57 144 -5 0 -28 -17 -50 -37 l-42 -38 7 30 c19
94 26 177 21 227 -8 64 -40 196 -50 206 -4 4 -17 -6 -30 -22 l-23 -28 2 48 c1
27 -4 75 -12 108 -15 69 -67 176 -85 176 -6 0 -24 -14 -38 -31 l-26 -32 -6 64
c-6 72 -33 138 -72 184 -25 29 -26 29 -40 11 -15 -19 -15 -19 -15 4 0 36 -35
102 -75 140 l-36 35 -19 -25 -20 -25 0 24 c0 38 -38 107 -76 141 -38 33 -54
38 -54 15 0 -30 -18 -14 -34 30 -15 39 -76 105 -97 105 -4 0 -15 -20 -24 -45
l-18 -44 -41 81 c-44 88 -89 133 -144 144 -31 6 -32 5 -32 -26 l0 -32 -44 49
c-52 57 -124 99 -187 109 -24 3 -61 18 -82 32 -47 31 -135 56 -152 42 -9 -7
-28 -4 -61 11 -61 26 -219 59 -285 59 -47 0 -49 -1 -39 -20 6 -12 30 -41 53
-65 l43 -44 -56 -6 c-30 -4 -59 -8 -65 -10 -5 -1 25 -37 68 -80 42 -42 77 -78
77 -81 0 -2 -24 -4 -52 -5 -29 0 -71 -6 -92 -12 l-39 -12 50 -45 50 -45 -232
0 -231 0 35 26 c20 14 44 35 54 47 18 20 18 20 -33 31 -28 6 -71 11 -95 11
-51 0 -57 10 -19 31 27 14 124 115 124 129 0 4 -28 11 -62 14 -51 6 -60 10
-48 19 26 20 90 97 90 107 0 16 -96 10 -199 -11z m1052 -233 c15 -12 25 -66
12 -66 -11 0 -42 38 -47 58 -7 25 8 28 35 8z m-1640 -21 c-3 -9 -8 -14 -10
-11 -3 3 -2 9 2 15 9 16 15 13 8 -4z m127 -135 c21 -21 27 -60 10 -60 -5 0
-10 5 -10 11 0 5 -4 8 -9 5 -5 -3 -11 2 -14 12 -2 9 -8 25 -12 35 -10 23 10
22 35 -3z m1120 -40 c287 -47 538 -154 765 -324 112 -83 287 -263 368 -376 82
-116 195 -341 236 -470 113 -357 106 -750 -21 -1100 -119 -329 -354 -633 -640
-828 -117 -79 -314 -178 -433 -217 -414 -134 -890 -104 -1270 81 -502 244
-851 698 -951 1239 -29 154 -27 481 4 630 70 334 218 617 446 853 154 159 287
258 475 352 170 85 351 140 542 165 125 16 367 13 479 -5z m1026 -194 c16 -16
19 -66 5 -66 -14 0 -41 41 -41 62 0 22 16 23 36 4z m241 -78 c-2 -13 -4 -3 -4
22 0 25 2 35 4 23 2 -13 2 -33 0 -45z m-2977 -230 c0 -19 -8 -22 -26 -10 -18
11 -36 51 -28 63 9 15 54 -29 54 -53z m3195 -232 c22 -23 26 -56 5 -56 -11 0
-37 33 -44 58 -10 29 8 29 39 -2z m322 -338 c-3 -8 -6 -5 -6 6 -1 11 2 17 5
13 3 -3 4 -12 1 -19z m-3886 -28 c10 -6 19 -21 19 -34 0 -34 -36 -23 -49 15
-11 32 -3 36 30 19z m3785 -295 c18 -27 13 -58 -8 -50 -12 5 -38 50 -38 67 0
18 31 6 46 -17z m-3824 -542 c18 -16 24 -44 11 -57 -9 -8 -53 42 -53 61 0 18
20 16 42 -4z m3806 -175 c5 -7 13 -23 16 -35 14 -46 -41 -17 -57 30 -8 20 25
24 41 5z m-3557 -559 c20 -20 23 -49 4 -56 -11 -3 -45 47 -45 66 0 17 18 13
41 -10z m3267 -81 c14 -14 16 -58 3 -58 -9 0 -51 52 -51 64 0 11 36 6 48 -6z
m-2716 -300 c46 -36 100 -75 121 -87 59 -36 38 -34 -50 4 -164 71 -240 72
-310 3 l-44 -43 7 55 c3 30 13 80 20 110 8 30 14 82 14 117 l0 62 79 -78 c44
-44 117 -108 163 -143z m2360 -25 l15 -71 -40 31 c-36 29 -45 32 -106 31 -63
-1 -85 -7 -236 -68 -39 -16 -39 -16 -15 1 106 75 225 172 280 227 l65 66 12
-72 c6 -40 18 -105 25 -145z m-2368 -44 c34 -12 131 -53 216 -91 222 -100 368
-149 528 -178 118 -21 319 -30 455 -20 243 18 419 65 687 187 269 122 371 147
430 106 13 -9 86 -78 163 -152 l138 -136 -98 0 c-97 0 -99 0 -203 -51 -58 -28
-148 -80 -201 -117 -175 -120 -273 -158 -539 -211 -336 -66 -613 -70 -944 -15
-292 49 -423 96 -602 216 -71 47 -172 107 -224 132 -93 45 -97 46 -193 46
l-97 0 153 153 153 152 59 0 c34 0 84 -9 119 -21z m-318 -300 c24 -6 44 -14
44 -18 0 -3 -27 -37 -60 -74 -33 -38 -60 -76 -60 -86 0 -27 83 -99 146 -128
99 -45 163 -27 148 42 l-6 30 47 -45 c26 -25 53 -57 61 -72 13 -25 12 -28 -12
-47 -57 -45 -133 -39 -250 18 -166 81 -284 204 -284 296 0 69 114 112 226 84z
m2897 0 c63 -16 92 -43 91 -88 -3 -98 -126 -221 -302 -304 -52 -24 -79 -31
-134 -31 -60 -1 -70 2 -94 26 l-27 27 26 39 c23 33 77 82 90 82 2 0 2 -11 -1
-25 -11 -60 62 -73 156 -27 61 29 142 100 142 123 0 8 -23 42 -52 75 -89 102
-85 91 -36 102 59 14 92 14 141 1z m-2718 -74 c33 -19 106 -65 162 -103 l102
-68 -46 -55 -46 -56 -71 72 c-82 83 -192 144 -263 147 -24 1 -43 3 -43 6 0 2
21 28 46 57 52 62 50 62 159 0z m2568 1 c26 -30 47 -56 47 -59 0 -2 -20 -5
-45 -5 -81 -4 -259 -112 -305 -187 l-23 -37 -48 53 c-27 30 -48 56 -48 59 -1
16 342 228 370 230 3 0 26 -24 52 -54z m-2638 -105 c67 -31 98 -68 93 -109 -2
-22 -9 -28 -35 -30 -84 -8 -272 127 -222 159 29 18 104 9 164 -20z m2714 15
c29 -35 -138 -156 -214 -156 -63 0 -68 55 -11 109 53 50 198 80 225 47z"/>
<path d="M3061 4053 c0 -21 3 -66 6 -100 l5 -63 49 0 c59 0 113 21 128 48 21
39 13 97 -15 126 -24 23 -34 26 -101 26 l-74 0 2 -37z m130 -6 c45 -34 29
-100 -27 -116 -20 -6 -41 -8 -46 -5 -4 3 -8 34 -8 70 l0 64 33 0 c17 0 39 -6
48 -13z"/>
<path d="M3341 4016 c-17 -120 -17 -122 27 -130 65 -10 112 -7 112 8 0 9 -18
16 -51 20 -45 6 -50 9 -47 29 3 20 8 22 51 19 41 -3 47 -1 47 17 0 16 -8 20
-42 23 -35 2 -43 7 -43 23 0 18 6 20 48 17 42 -3 47 -1 47 17 0 15 -6 21 -24
21 -13 0 -43 3 -68 6 l-45 6 -12 -76z"/>
<path d="M2758 3996 c-3 -35 -7 -41 -38 -51 l-35 -12 39 -13 c38 -12 38 -13
33 -54 l-6 -41 24 28 c26 29 45 33 76 17 23 -13 24 -6 2 31 -16 27 -16 29 5
52 30 32 28 37 -10 26 -30 -8 -35 -6 -60 23 l-26 33 -4 -39z"/>
<path d="M3666 4000 c-18 -32 -28 -34 -83 -13 -14 5 -11 -1 10 -26 l27 -33
-21 -34 c-23 -38 -21 -40 21 -19 28 14 29 14 54 -18 l26 -32 0 41 c0 38 3 42
38 56 l37 15 -36 7 c-32 7 -38 12 -45 48 l-9 40 -19 -32z"/>
<path d="M2494 3926 c-19 -13 -19 -20 -11 -118 5 -56 10 -104 12 -106 9 -10
45 26 45 46 0 31 62 62 91 44 27 -17 69 3 48 23 -29 28 -152 125 -158 125 -4
0 -16 -6 -27 -14z m66 -71 c25 -27 25 -27 -6 -43 -19 -10 -23 -8 -28 11 -8 31
-7 57 2 57 5 0 19 -11 32 -25z"/>
<path d="M3903 3855 c-31 -31 -35 -40 -30 -72 8 -46 47 -87 99 -102 33 -10 42
-10 49 1 14 21 11 24 -28 34 -70 18 -92 85 -38 120 20 13 27 13 57 1 18 -8 39
-21 47 -30 16 -20 31 -13 31 13 0 29 -67 70 -113 70 -31 0 -46 -7 -74 -35z"/>
<path d="M3130 3834 c-155 -12 -351 -61 -480 -120 -489 -226 -802 -709 -804
-1239 -1 -140 4 -198 29 -313 37 -176 127 -373 240 -523 118 -158 315 -326
468 -400 34 -17 44 -26 36 -35 -13 -16 1 -23 25 -14 12 4 48 -4 93 -21 40 -15
73 -25 73 -23 0 2 18 -3 39 -11 151 -53 434 -65 630 -26 114 22 271 75 367
124 87 44 226 142 306 217 474 438 580 1150 254 1704 -202 343 -533 578 -925
655 -96 19 -266 31 -351 25z m134 -189 c35 -111 56 -152 56 -111 0 20 42 45
89 52 111 18 255 -42 489 -203 89 -61 138 -99 171 -134 47 -49 62 -69 53 -69
-5 0 -15 7 -22 15 -7 8 -17 12 -23 8 -5 -3 -7 -2 -4 4 4 6 -5 15 -19 22 -14 6
-22 16 -19 21 3 6 -2 10 -12 10 -11 0 -24 5 -30 11 -8 8 -17 8 -30 0 -15 -7
-20 -7 -20 4 0 7 7 11 16 8 9 -3 1 9 -17 27 -18 17 -38 30 -45 27 -7 -2 -3 -9
11 -16 26 -14 30 -34 5 -23 -29 12 -63 36 -63 45 0 5 7 7 15 3 8 -3 15 -2 15
2 0 21 -38 55 -98 89 -37 20 -69 40 -72 43 -10 12 -111 51 -120 45 -5 -3 -11
-1 -14 4 -9 14 -48 0 -42 -15 3 -8 -1 -14 -9 -14 -18 0 -18 5 -5 31 8 15 7 19
-4 19 -8 0 -18 -5 -22 -11 -5 -8 -9 -7 -15 3 -7 13 -18 14 -61 5 -29 -5 -59
-14 -65 -20 -13 -10 -9 -46 10 -82 12 -21 19 -55 13 -55 -2 0 -14 15 -26 33
-12 17 -19 23 -15 12 13 -42 17 -103 6 -109 -6 -4 -11 -15 -11 -26 0 -11 -16
-26 -42 -40 -56 -29 -108 -23 -142 16 -35 40 -32 54 4 19 16 -16 33 -25 37
-22 10 10 -38 57 -58 57 -10 0 -21 5 -25 11 -4 8 -9 7 -15 -2 -6 -10 -9 -8 -9
9 0 26 8 27 38 6 28 -19 28 -11 1 27 -23 33 -22 64 3 64 9 0 20 3 23 7 4 4 14
4 22 1 11 -4 14 -2 11 8 -3 8 -16 13 -32 11 -14 -1 -26 1 -26 5 0 15 95 293
100 293 3 0 23 -57 44 -125z m-245 -51 c35 -7 91 -54 91 -76 0 -23 -26 -52
-39 -44 -9 6 -9 11 1 23 10 13 8 19 -11 35 -14 10 -31 16 -39 13 -8 -3 -21 0
-29 7 -21 17 -194 -17 -258 -52 -127 -67 -152 -84 -181 -116 -17 -19 -36 -34
-42 -34 -6 0 -26 -15 -44 -33 -19 -18 -55 -45 -81 -60 -26 -16 -45 -32 -43
-36 3 -4 -11 -14 -30 -23 -39 -18 -47 -8 -9 12 13 7 27 22 31 32 12 40 282
225 456 314 66 33 166 50 227 38z m-119 -73 c0 -12 -39 -25 -47 -17 -4 3 1 6
10 6 10 0 17 5 17 10 0 6 5 10 10 10 6 0 10 -4 10 -9z m151 -110 c-12 -22 -31
-28 -31 -10 0 23 22 51 32 41 7 -7 6 -17 -1 -31z m-391 -36 c-7 -9 -15 -13
-17 -11 -7 7 7 26 19 26 6 0 6 -6 -2 -15z m1103 1 c4 -10 1 -13 -8 -9 -8 3
-12 9 -9 14 7 12 11 11 17 -5z m38 -3 c13 -16 12 -17 -3 -4 -17 13 -22 21 -14
21 2 0 10 -8 17 -17z m-1247 -34 c-10 -11 -37 -29 -59 -40 l-40 -19 35 31 c19
16 40 34 45 39 6 5 16 9 24 10 10 0 9 -5 -5 -21z m193 9 c-2 -7 -11 -12 -21
-10 -9 2 -16 -3 -16 -9 0 -7 -2 -10 -5 -7 -3 3 -3 13 1 22 7 19 48 23 41 4z
m960 -15 c5 -15 -23 -11 -40 6 -10 10 -7 12 12 9 14 -1 26 -8 28 -15z m93 7
c0 -5 -2 -10 -4 -10 -3 0 -8 5 -11 10 -3 6 -1 10 4 10 6 0 11 -4 11 -10z m-60
-30 c0 -5 -2 -10 -4 -10 -3 0 -8 5 -11 10 -3 6 -1 10 4 10 6 0 11 -4 11 -10z
m-1030 -16 c-8 -8 -23 -20 -34 -26 -18 -9 -17 -7 4 15 27 27 50 36 30 11z
m1021 -15 l34 -31 -31 15 c-17 9 -34 23 -37 32 -9 21 -5 19 34 -16z m154 -29
c7 -12 -2 -12 -30 0 -19 8 -19 9 2 9 12 1 25 -3 28 -9z m-1460 -40 c-10 -11
-25 -20 -34 -20 -10 0 -4 8 14 19 39 25 42 25 20 1z m155 16 c0 -3 -4 -8 -10
-11 -5 -3 -10 -1 -10 4 0 6 5 11 10 11 6 0 10 -2 10 -4z m1435 -30 c11 -8 16
-15 10 -16 -5 0 -23 12 -40 26 -31 26 -6 18 30 -10z m-1541 9 c-25 -19 -40
-19 -24 0 7 8 20 15 28 15 13 0 12 -3 -4 -15z m1381 5 c3 -5 1 -10 -4 -10 -6
0 -11 5 -11 10 0 6 2 10 4 10 3 0 8 -4 11 -10z m116 -21 c19 -16 20 -18 4 -10
-34 17 -51 31 -39 31 7 0 22 -9 35 -21z m-1491 -3 c0 -2 -8 -10 -17 -17 -16
-13 -17 -12 -4 4 13 16 21 21 21 13z m1492 -66 c-4 -28 -2 -30 27 -30 40 0 39
-11 -4 -49 -42 -36 -82 -40 -156 -14 -41 15 -53 16 -84 4 -20 -7 -38 -11 -41
-8 -6 5 54 80 72 90 9 5 37 4 65 -3 46 -11 52 -10 84 11 29 20 33 26 20 35 -8
6 -15 15 -15 19 0 5 8 1 18 -8 13 -12 17 -26 14 -47z m-927 30 c10 8 15 8 20
-1 4 -6 2 -15 -4 -19 -8 -4 -11 -30 -10 -71 1 -35 -1 -73 -5 -85 -6 -17 -2
-22 26 -30 22 -7 33 -16 34 -29 0 -34 16 -95 24 -95 4 0 12 12 19 27 l12 26
15 -27 c8 -16 14 -29 14 -31 0 -1 -26 -13 -57 -26 -45 -18 -77 -24 -143 -24
-77 0 -92 3 -153 33 -37 18 -72 30 -78 26 -12 -7 -8 -342 5 -362 4 -6 169 -10
455 -11 l450 -1 7 37 c11 59 10 320 -1 332 -7 7 -31 0 -75 -22 -59 -29 -72
-32 -155 -31 -95 1 -179 24 -227 64 -33 27 -12 46 28 25 16 -8 37 -15 46 -15
21 0 32 16 17 26 -8 4 -9 3 -5 -4 8 -13 -13 -16 -29 -4 -5 4 -11 27 -13 51 -3
52 12 67 45 45 20 -13 33 -7 17 8 -8 9 -14 139 -7 166 4 18 11 23 32 20 14 -1
32 2 40 6 15 10 51 -25 51 -50 0 -7 9 -38 21 -69 19 -51 23 -55 52 -55 17 0
63 -9 101 -19 39 -10 86 -22 105 -25 31 -5 33 -4 28 17 -4 13 1 31 13 45 l18
22 36 -21 c40 -23 41 -27 21 -84 -8 -22 -15 -41 -15 -42 0 -2 25 -3 55 -3 33
0 57 5 62 13 4 7 28 27 52 44 24 18 49 42 55 54 7 14 44 38 95 61 66 30 81 34
66 18 -10 -11 -38 -32 -63 -46 -76 -44 -102 -73 -102 -111 l0 -33 218 0 217
-1 -26 -22 c-15 -12 -61 -47 -104 -77 -43 -30 -113 -81 -156 -112 l-79 -58 0
-98 c0 -108 -23 -303 -46 -397 -33 -133 -101 -272 -164 -335 l-21 -21 60 -179
c32 -99 56 -180 53 -180 -3 0 -15 8 -26 18 -25 21 -259 192 -296 215 -14 8
-61 18 -105 22 -75 6 -165 31 -165 47 0 4 -7 14 -16 23 -21 20 -3 45 33 45 18
0 23 4 20 14 -3 8 4 26 17 40 l22 26 25 -26 c32 -35 104 -76 126 -73 10 2 28
-3 41 -10 13 -7 28 -10 35 -8 7 3 -3 10 -20 17 -18 7 -33 15 -33 18 0 4 25 42
56 84 38 55 65 82 90 93 20 8 38 24 41 35 3 11 9 17 14 14 5 -3 9 4 9 15 0 10
6 22 13 24 8 4 9 6 0 6 -6 1 -19 -6 -27 -15 -9 -8 -16 -12 -16 -8 0 4 -9 -1
-20 -11 -26 -23 -26 -21 10 74 55 150 89 323 90 453 0 63 2 68 33 92 17 14 27
26 20 26 -6 0 -19 -7 -28 -17 -13 -13 -18 -14 -25 -3 -4 7 -13 9 -19 6 -8 -5
-11 19 -11 83 0 49 -4 92 -9 95 -8 5 -89 -47 -101 -64 -3 -4 -14 -9 -25 -11
-18 -4 -21 -15 -28 -119 -4 -63 -12 -137 -17 -165 -6 -27 -15 -84 -20 -125
-10 -90 -37 -170 -86 -259 -44 -80 -128 -191 -186 -247 -55 -52 -176 -144
-190 -144 -6 0 -26 11 -45 26 -36 28 -46 16 -12 -15 21 -19 21 -25 14 -148 -4
-70 -9 -131 -11 -135 -7 -11 -42 -10 -65 3 -15 8 -19 19 -17 42 3 31 2 32 -39
35 -24 2 -43 6 -43 10 0 6 56 126 99 213 l17 36 -27 16 c-28 15 -28 15 -19 -8
7 -18 6 -23 -4 -19 -8 3 -16 -4 -19 -16 -3 -12 -10 -19 -16 -15 -6 3 -11 2
-11 -3 0 -18 -77 -41 -146 -43 -38 -1 -77 -6 -87 -11 -10 -5 -91 -63 -180
-128 -89 -65 -163 -118 -164 -116 -1 1 23 79 54 172 l56 169 -41 55 c-124 163
-177 351 -189 662 l-6 156 -179 129 -178 128 215 3 215 2 0 39 c0 22 -6 41
-12 44 -7 3 -44 29 -83 57 -52 39 -63 51 -42 46 53 -12 137 -58 137 -75 0 -9
15 -26 33 -38 17 -13 45 -34 61 -48 23 -19 40 -25 79 -25 43 0 48 2 42 18 -4
9 -11 33 -16 52 -7 31 -5 38 19 57 31 26 54 30 46 8 -4 -9 3 -16 20 -21 22 -5
24 -9 15 -26 -6 -11 -8 -22 -6 -25 3 -2 51 7 108 21 56 14 117 26 135 26 33 0
33 1 60 88 31 100 37 114 42 89 3 -14 7 -15 17 -7z m-550 -26 c22 -22 32 -25
58 -19 95 20 91 20 132 -29 21 -26 36 -49 33 -51 -2 -3 -19 1 -36 7 -27 11
-41 10 -81 -5 -70 -25 -117 -22 -158 9 -42 32 -43 54 -3 54 27 0 29 2 24 30
-8 37 -2 37 31 4z m1715 -14 c0 -5 -2 -10 -4 -10 -3 0 -8 5 -11 10 -3 6 -1 10
4 10 6 0 11 -4 11 -10z m-959 -339 c3 0 13 -17 22 -36 13 -28 14 -40 5 -59
-19 -43 -35 -38 -37 11 -1 49 -6 63 -22 63 -6 0 -7 -5 -4 -11 4 -6 -2 -13 -14
-16 -17 -4 -21 -13 -21 -44 0 -40 -7 -48 -28 -27 -17 17 -15 52 5 91 15 29 22
33 53 31 19 -1 38 -2 41 -3z m-331 -73 c17 -12 30 -28 30 -36 0 -12 11 -14 59
-9 50 6 63 3 84 -13 14 -11 28 -33 32 -49 3 -16 13 -35 21 -42 12 -10 12 -14
2 -21 -10 -6 -7 -10 10 -14 28 -8 28 -21 1 -29 -15 -5 -25 -2 -31 9 -5 9 -17
16 -26 15 -14 0 -13 -2 3 -8 19 -8 19 -8 -4 -20 -17 -9 -26 -10 -34 -2 -6 6
-19 11 -29 11 -10 0 -18 6 -19 13 0 7 -2 8 -5 1 -8 -19 -63 -3 -87 25 -12 15
-28 26 -35 23 -22 -7 -43 64 -36 118 7 57 19 62 64 28z m654 -38 c0 -82 -11
-113 -34 -107 -11 3 -18 2 -15 -2 7 -13 -38 -49 -70 -56 -16 -4 -39 -9 -50
-12 -18 -5 -18 -5 -2 11 9 10 22 26 27 36 12 23 2 53 -14 43 -6 -4 -15 -8 -21
-8 -5 0 -11 -11 -11 -25 -3 -61 -39 -81 -64 -35 -13 25 -30 33 -30 15 0 -14
-27 -13 -36 1 -9 15 17 30 40 23 15 -5 18 -3 13 10 -9 23 17 82 40 95 11 5 44
7 76 4 38 -4 57 -2 57 5 0 20 54 63 75 60 17 -3 20 -10 19 -58z m-280 -44 c-3
-14 -19 -35 -35 -47 -21 -15 -29 -29 -29 -50 0 -18 -4 -28 -10 -24 -6 4 -10
12 -9 18 3 27 -2 37 -20 37 -11 0 -29 12 -40 26 -39 49 -21 60 28 18 l31 -26
0 24 c1 20 2 21 11 6 9 -16 13 -14 41 17 34 40 42 40 32 1z m546 -30 c0 -2 -7
-7 -16 -10 -8 -3 -12 -2 -9 4 6 10 25 14 25 6z m-69 -46 c-13 -11 -28 -20 -35
-20 -6 0 0 9 14 20 33 26 52 25 21 0z m-466 -945 c4 -36 12 -65 17 -65 16 0 4
-55 -13 -58 -13 -2 -18 9 -23 55 -4 32 -9 75 -13 96 -4 29 -2 37 10 37 12 0
17 -16 22 -65z m-34 -102 c2 -23 0 -45 -4 -49 -4 -4 -7 17 -7 46 0 62 7 64 11
3z m9 -79 c0 -8 -5 -12 -10 -9 -6 4 -8 11 -5 16 9 14 15 11 15 -7z"/>
<path d="M3184 3425 c1 -8 7 -20 13 -26 7 -7 9 -3 6 15 -6 27 -23 37 -19 11z"/>
<path d="M3221 3375 c1 -22 16 -48 22 -38 3 5 0 19 -8 29 -8 10 -14 15 -14 9z"/>
<path d="M3457 2953 c-9 -9 -9 -53 1 -53 4 0 7 14 8 30 1 32 1 33 -9 23z"/>
<path d="M3499 2942 c6 -11 6 -24 0 -35 -11 -19 5 -25 16 -6 9 14 -3 59 -16
59 -6 0 -6 -6 0 -18z"/>
<path d="M3600 2911 c0 -23 5 -41 10 -41 6 0 10 15 10 34 0 19 -4 38 -10 41
-6 4 -10 -10 -10 -34z"/>
<path d="M2800 2908 c0 -21 4 -38 9 -38 5 0 7 9 4 20 -3 11 0 20 6 20 6 0 11
-8 11 -17 0 -14 2 -15 9 -4 6 9 11 10 15 2 4 -6 15 -11 24 -11 16 1 16 1 0 11
-11 6 -15 16 -11 27 5 13 3 14 -7 5 -13 -12 -40 -7 -52 11 -4 6 -8 -6 -8 -26z"/>
<path d="M2880 2930 c0 -5 5 -10 11 -10 5 0 7 5 4 10 -3 6 -8 10 -11 10 -2 0
-4 -4 -4 -10z"/>
<path d="M2910 2915 c0 -14 4 -25 9 -25 5 0 11 11 13 25 4 17 1 25 -8 25 -8 0
-14 -11 -14 -25z"/>
<path d="M2953 2920 c5 -31 17 -36 17 -7 0 15 -4 27 -10 27 -5 0 -9 -9 -7 -20z"/>
<path d="M3530 2916 c0 -14 5 -26 10 -26 6 0 10 7 10 15 0 8 0 18 1 22 0 4 -4
9 -10 11 -6 2 -11 -8 -11 -22z"/>
<path d="M3052 2900 c1 -16 5 -30 10 -30 4 0 8 14 8 30 0 17 -4 30 -9 30 -5 0
-9 -13 -9 -30z"/>
<path d="M3573 2914 c-3 -8 -1 -20 5 -26 7 -7 10 -2 9 16 -2 30 -5 32 -14 10z"/>
<path d="M3005 2910 c3 -5 1 -10 -4 -10 -6 0 -11 -4 -11 -8 0 -5 7 -9 15 -9 8
0 15 9 15 19 0 10 -5 18 -11 18 -5 0 -7 -4 -4 -10z"/>
<path d="M3340 2911 c0 -5 7 -14 15 -21 16 -14 18 -10 9 14 -6 17 -24 22 -24
7z"/>
<path d="M2702 2875 c2 -19 6 -35 11 -35 36 -1 47 1 47 9 0 5 -9 7 -20 4 -17
-5 -20 0 -20 26 0 17 -5 31 -10 31 -6 0 -9 -16 -8 -35z"/>
<path d="M3031 2894 c0 -11 3 -14 6 -6 3 7 2 16 -1 19 -3 4 -6 -2 -5 -13z"/>
<path d="M3636 2903 c-12 -12 -6 -41 10 -47 24 -9 31 -7 12 5 -22 12 -24 31
-3 23 8 -4 15 -2 15 4 0 12 -26 23 -34 15z"/>
<path d="M2774 2880 c0 -11 4 -20 8 -20 4 0 8 9 8 20 0 11 -4 20 -8 20 -4 0
-8 -9 -8 -20z"/>
<path d="M3680 2865 c0 -31 20 -33 21 -2 1 17 3 16 9 -8 6 -25 8 -27 14 -12
11 25 0 47 -24 47 -15 0 -20 -7 -20 -25z"/>
<path d="M2997 2835 c-22 -45 -22 -44 11 -41 15 2 35 4 44 5 18 1 48 27 48 42
0 5 -12 11 -27 15 -16 3 -35 8 -44 10 -10 3 -21 -8 -32 -31z"/>
<path d="M3335 2860 c4 -6 11 -8 16 -5 14 9 11 15 -7 15 -8 0 -12 -5 -9 -10z"/>
<path d="M2240 2779 c26 -31 38 -39 59 -37 20 2 25 8 23 23 -2 11 -8 25 -14
30 -8 7 -9 5 -5 -7 8 -23 4 -23 -43 7 -54 34 -57 32 -20 -16z"/>
<path d="M2555 2798 c-4 -14 -5 -62 -3 -106 2 -64 0 -78 -10 -70 -21 18 -25 3
-23 -94 3 -148 35 -313 91 -467 16 -45 25 -81 20 -81 -6 0 -10 4 -10 9 0 5
-14 17 -32 25 -36 19 -38 19 -38 7 0 -14 99 -115 106 -108 7 7 52 -45 90 -105
28 -45 29 -49 7 -41 -11 4 -14 3 -9 -5 4 -8 -3 -16 -20 -22 -15 -6 -24 -13
-21 -16 8 -9 77 5 77 15 0 5 10 6 23 4 28 -5 108 47 144 93 25 34 24 46 -8 74
-3 3 -26 34 -50 70 -50 72 -85 147 -120 258 -13 42 -31 78 -41 83 -25 14 -22
25 6 24 30 0 66 -32 67 -59 0 -12 3 -15 6 -8 7 18 43 15 91 -8 22 -11 45 -20
51 -20 5 0 13 9 16 20 3 11 13 20 21 20 8 0 13 4 10 9 -3 5 1 14 9 21 8 7 15
21 15 31 0 13 7 19 23 19 25 1 57 22 57 38 0 6 19 13 43 15 23 2 -51 4 -165 5
-200 2 -208 1 -208 -17 0 -11 -5 -23 -10 -26 -13 -8 -30 36 -30 76 0 24 -8 34
-51 60 -56 35 -60 53 -4 20 20 -11 38 -21 41 -21 2 0 4 36 4 80 0 79 0 80 -37
118 -21 21 -54 49 -73 62 -19 13 -38 29 -42 34 -4 5 -10 -2 -13 -16z"/>
<path d="M4190 2805 c-7 -8 -19 -15 -26 -15 -8 0 -14 -4 -14 -10 0 -5 -9 -10
-19 -10 -31 0 -35 -19 -6 -26 27 -7 65 19 86 59 12 21 -4 23 -21 2z"/>
<path d="M3330 2423 c114 -3 146 -7 153 -18 4 -8 15 -15 22 -15 8 0 14 -3 13
-7 -5 -13 25 -93 34 -94 4 -1 13 -2 18 -3 6 0 15 -7 19 -15 7 -11 10 -11 17 0
6 10 10 7 14 -11 6 -21 10 -13 28 46 12 39 22 83 22 98 l0 26 -242 -2 c-168
-2 -198 -3 -98 -5z"/>
<path d="M3208 2377 c-32 -12 -64 -31 -72 -43 -13 -19 -13 -24 2 -45 24 -35
25 -57 1 -64 -15 -5 -17 -10 -9 -20 17 -20 50 -26 57 -9 9 24 23 15 23 -14 0
-16 3 -32 8 -36 4 -4 7 -13 7 -19 0 -16 27 -15 33 1 2 7 -2 11 -10 10 -8 -2
-14 8 -16 27 -2 29 -2 29 13 10 9 -11 21 -19 26 -17 6 1 22 -6 35 -17 14 -11
32 -17 40 -14 18 7 18 37 1 51 -7 6 -14 30 -15 54 -3 67 -23 142 -40 156 -20
15 -15 15 -84 -11z"/>
<path d="M2953 2082 l-82 -3 36 -59 c40 -68 164 -214 188 -224 9 -3 21 -4 26
0 5 3 16 -2 25 -10 11 -12 36 -16 89 -16 62 0 76 3 88 20 8 11 16 17 19 14 7
-7 103 90 134 136 14 19 40 59 59 88 l36 52 -153 1 c-84 0 -205 2 -268 3 -63
1 -152 0 -197 -2z m327 -52 c0 -5 -22 -10 -50 -10 -27 0 -50 5 -50 10 0 6 23
10 50 10 28 0 50 -4 50 -10z m20 -36 c0 -11 -17 -14 -70 -14 -61 0 -81 6 -66
21 3 2 34 5 70 5 50 1 66 -2 66 -12z m135 -64 c3 -5 1 -10 -4 -10 -6 0 -11 5
-11 10 0 6 2 10 4 10 3 0 8 -4 11 -10z m-188 -16 c-3 -3 -12 -4 -19 -1 -8 3
-5 6 6 6 11 1 17 -2 13 -5z m58 -74 c5 -8 12 -7 22 2 13 10 15 9 12 -7 -3 -13
-12 -20 -27 -19 -12 0 -47 1 -77 2 -41 2 -55 6 -55 17 0 12 13 15 59 15 33 0
63 -5 66 -10z"/>
<path d="M3001 1788 c-5 -13 -5 -24 0 -26 13 -5 41 26 34 38 -10 17 -25 11
-34 -12z"/>
<path d="M2737 1683 c-18 -5 -18 -5 0 -19 21 -16 37 -18 28 -4 -8 13 8 13 21
1 5 -6 24 -3 49 9 l40 18 -60 0 c-33 0 -68 -2 -78 -5z"/>
<path d="M3590 1675 c0 -8 71 -24 86 -18 26 10 3 23 -42 23 -24 0 -44 -2 -44
-5z"/>
<path d="M3111 1463 c-16 -17 -11 -25 8 -14 7 5 12 13 10 19 -2 6 -10 4 -18
-5z"/>
<path d="M3013 2595 c-18 -38 -9 -61 12 -31 8 10 16 23 17 28 2 6 15 11 30 11
20 2 24 5 16 15 -21 25 -57 14 -75 -23z"/>
<path d="M3340 2615 c-11 -13 -7 -15 34 -14 37 2 44 5 35 16 -15 18 -54 17
-69 -2z"/>
<path d="M2303 3810 c-51 -22 -78 -61 -78 -111 0 -73 78 -119 143 -85 50 26
83 66 71 88 -9 17 -13 16 -43 -17 -37 -38 -68 -44 -104 -19 -44 30 -12 104 52
120 29 7 32 16 13 32 -9 8 -24 6 -54 -8z"/>
<path d="M4148 3724 c-60 -32 -67 -107 -15 -159 53 -53 114 -58 157 -15 44 44
37 106 -16 157 -40 37 -80 42 -126 17z m103 -54 c34 -33 33 -62 -3 -92 -28
-25 -55 -22 -83 7 -33 32 -32 68 1 94 36 28 50 26 85 -9z"/>
<path d="M2091 3646 c-10 -12 0 -27 58 -88 66 -69 71 -72 87 -56 17 17 14 21
-47 85 -71 75 -80 81 -98 59z"/>
<path d="M4342 3498 c-43 -38 -68 -67 -64 -74 18 -30 94 -104 102 -99 17 11
11 28 -21 61 l-31 32 38 35 c22 19 50 44 64 55 21 17 22 22 11 36 -7 9 -17 16
-20 16 -4 0 -40 -28 -79 -62z"/>
<path d="M1939 3484 c-12 -14 -6 -23 41 -66 101 -90 94 -89 150 -27 40 45 46
56 35 68 -11 11 -19 7 -48 -25 l-35 -38 -60 52 c-33 29 -62 52 -65 52 -2 0
-11 -7 -18 -16z"/>
<path d="M1825 3313 c-19 -27 -35 -51 -35 -54 0 -7 152 -109 162 -109 13 0 68
99 68 123 0 31 -38 61 -64 51 -11 -4 -22 1 -32 15 -26 36 -60 27 -99 -26z m70
-4 c8 -12 -2 -59 -13 -59 -4 0 -16 7 -26 15 -19 14 -19 15 -1 35 20 22 31 25
40 9z m80 -58 c0 -34 -30 -51 -52 -29 -16 16 -16 19 2 38 24 27 50 22 50 -9z"/>
<path d="M4490 3337 c-14 -7 -33 -29 -44 -50 -17 -37 -18 -40 -1 -83 28 -74
95 -103 156 -67 72 43 55 165 -28 199 -40 17 -51 17 -83 1z m103 -69 c26 -35
16 -73 -24 -93 -28 -15 -33 -15 -54 -1 -33 21 -48 52 -39 79 17 53 83 61 117
15z"/>
<path d="M1727 3138 c-4 -12 -5 -23 -4 -23 1 -1 28 -12 60 -25 66 -26 83 -47
66 -84 -17 -37 -40 -40 -106 -12 -59 25 -78 22 -71 -10 2 -11 26 -26 70 -42
67 -24 67 -24 100 -5 22 13 38 33 48 61 21 62 7 91 -60 123 -86 41 -97 43
-103 17z"/>
<path d="M1648 3109 c-6 -17 9 -49 22 -49 14 0 12 23 -4 45 -10 15 -14 16 -18
4z"/>
<path d="M4628 3062 c-88 -31 -92 -34 -83 -61 6 -19 6 -19 60 -1 58 20 68 14
40 -24 -21 -28 -19 -33 20 -47 19 -7 35 -16 35 -19 0 -3 -23 -12 -52 -20 -54
-16 -64 -26 -48 -50 8 -12 21 -11 95 14 114 37 124 66 35 96 -22 7 -40 14 -40
15 0 2 11 23 25 48 25 43 25 78 1 76 -6 0 -46 -13 -88 -27z"/>
<path d="M1646 2857 c-20 -20 -46 -112 -34 -122 2 -1 44 -11 95 -22 92 -20 92
-20 99 -1 7 24 3 29 -38 37 -31 6 -32 8 -29 53 2 38 -1 49 -21 62 -30 22 -45
20 -72 -7z m53 -36 c9 -6 11 -18 7 -35 -5 -22 -11 -26 -29 -20 -30 9 -30 10
-23 39 7 26 21 31 45 16z"/>
<path d="M4687 2767 l-67 -9 6 -52 c7 -53 19 -86 38 -98 21 -14 56 -8 68 11 9
15 19 18 40 14 51 -10 69 29 52 116 -7 35 -15 36 -137 18z m113 -51 c0 -25
-12 -46 -26 -46 -16 0 -37 37 -29 50 10 16 55 12 55 -4z m-85 -31 c0 -23 -5
-31 -22 -33 -17 -3 -24 3 -29 22 -8 32 3 48 29 44 17 -2 22 -10 22 -33z"/>
<path d="M1586 2574 c-4 -37 -5 -69 -2 -71 5 -5 189 -23 194 -19 2 2 6 36 9
75 5 60 3 71 -9 71 -11 0 -19 -15 -25 -47 -6 -38 -12 -48 -28 -48 -17 0 -20 6
-18 48 3 41 0 47 -17 47 -15 0 -19 -8 -22 -42 -3 -37 -7 -44 -27 -46 -23 -4
-24 -2 -17 47 6 46 5 51 -12 51 -16 0 -20 -10 -26 -66z"/>
<path d="M4718 2532 c-65 -3 -68 -4 -68 -27 0 -23 4 -25 48 -25 26 0 71 3 100
7 47 5 53 8 50 27 -3 23 -7 23 -130 18z"/>
<path d="M1727 2404 c-34 -22 -40 -23 -58 -10 -45 31 -79 -6 -79 -86 l0 -58
54 0 c29 0 74 3 100 6 40 6 46 10 46 31 0 23 -2 24 -40 18 -36 -6 -40 -5 -40
14 0 14 11 27 35 38 28 13 35 23 35 45 0 34 -4 34 -53 2z m-57 -63 c16 -32 12
-41 -20 -41 -25 0 -30 4 -30 24 0 22 10 33 32 35 4 1 12 -8 18 -18z"/>
<path d="M4647 2410 c-4 -14 1 -25 14 -33 14 -9 19 -23 19 -57 0 -37 -4 -47
-22 -55 -23 -10 -39 -55 -20 -55 5 0 53 16 106 36 90 35 96 38 96 65 0 26 -8
33 -90 74 -49 25 -91 45 -94 45 -2 0 -6 -9 -9 -20z m137 -92 c9 -7 -34 -28
-60 -28 -14 0 -20 40 -8 53 6 6 51 -10 68 -25z"/>
<path d="M1745 2018 c-9 -28 -16 -34 -48 -38 l-37 -5 30 -20 c17 -11 28 -26
25 -33 -3 -8 -8 -26 -11 -40 l-7 -27 27 25 c27 24 28 24 58 7 37 -21 42 -18
29 16 -9 23 -6 29 19 51 l30 25 -37 3 c-33 3 -39 7 -48 36 -5 17 -12 32 -15
32 -3 0 -10 -15 -15 -32z"/>
<path d="M4665 2018 c-9 -28 -15 -34 -48 -38 l-39 -5 32 -18 c20 -12 29 -24
26 -34 -4 -8 -9 -26 -12 -40 l-7 -26 32 24 31 23 30 -22 c39 -29 42 -28 24 14
-14 33 -14 36 8 54 13 11 28 20 33 21 6 1 -8 5 -30 8 -34 5 -41 11 -49 39 -5
17 -12 32 -15 32 -4 0 -11 -15 -16 -32z"/>
<path d="M1840 1776 c-79 -46 -85 -53 -70 -76 8 -13 13 -13 41 3 40 22 44 22
57 -8 24 -53 92 -52 113 2 7 20 4 35 -17 74 -15 27 -32 49 -38 48 -6 0 -45
-19 -86 -43z m97 -26 c7 -10 10 -26 7 -35 -9 -22 -41 -19 -54 6 -9 17 -8 23 7
35 24 18 26 17 40 -6z"/>
<path d="M4660 1769 c-12 -22 -27 -39 -33 -36 -7 3 -41 17 -75 33 -53 23 -65
25 -73 13 -5 -8 -9 -17 -9 -22 0 -6 164 -87 176 -87 6 0 64 118 64 130 0 25
-32 6 -50 -31z"/>
<path d="M4395 1643 c-16 -23 -14 -27 41 -114 46 -73 59 -87 70 -78 16 13 19
45 4 54 -6 3 2 23 17 46 21 33 31 39 49 35 17 -5 26 0 34 15 7 11 10 22 8 23
-2 2 -49 12 -105 23 l-103 20 -15 -24z m120 -45 c2 -2 -5 -14 -16 -28 l-19
-25 -20 25 c-30 38 -26 49 16 40 19 -5 37 -10 39 -12z"/>
<path d="M1928 1600 c-28 -28 -30 -36 -25 -78 13 -120 171 -156 207 -46 37
110 -102 204 -182 124z m118 -33 c34 -29 36 -73 4 -99 -30 -25 -56 -23 -85 7
-33 32 -32 68 1 94 34 27 47 26 80 -2z"/>
<path d="M4302 1528 c-19 -19 -14 -30 31 -70 l42 -37 -86 -1 c-125 0 -131 -12
-43 -95 72 -67 90 -76 101 -49 4 10 -10 31 -38 61 l-44 45 86 -7 c72 -6 87 -4
99 10 11 13 9 20 -16 46 -64 68 -120 109 -132 97z"/>
<path d="M2113 1400 c-35 -36 -63 -71 -63 -77 0 -5 22 -29 49 -52 27 -23 52
-45 55 -48 3 -3 8 2 12 11 5 12 -4 28 -27 52 l-33 34 44 47 c25 26 50 51 55
55 11 8 -4 40 -21 44 -5 1 -37 -29 -71 -66z"/>
<path d="M2261 1275 c-63 -79 -67 -88 -45 -106 14 -11 18 -11 30 6 8 11 35 46
60 78 44 55 52 87 21 87 -7 0 -37 -29 -66 -65z"/>
<path d="M4112 1332 c-12 -2 -38 -18 -57 -36 -29 -28 -35 -40 -35 -75 0 -34 6
-49 30 -73 28 -27 36 -30 77 -25 33 3 54 13 75 34 79 79 21 191 -90 175z m73
-72 c20 -39 19 -47 -10 -75 -61 -62 -150 11 -99 83 11 16 25 22 54 22 34 0 42
-4 55 -30z"/>
<path d="M2364 1232 c-69 -55 -53 -141 33 -183 24 -12 50 -18 58 -15 25 9 17
31 -17 41 -70 22 -88 100 -29 125 24 9 34 9 60 -4 17 -9 36 -26 42 -38 11 -21
12 -21 25 -3 12 16 11 22 -9 43 -48 52 -122 68 -163 34z"/>
<path d="M3910 1205 c-9 -11 -2 -29 37 -95 48 -80 61 -91 81 -67 8 9 -3 34
-40 95 -27 45 -53 82 -57 82 -5 0 -14 -7 -21 -15z"/>
<path d="M2550 1084 c-22 -48 -40 -88 -40 -90 0 -2 9 -8 20 -14 19 -10 24 -4
61 76 40 86 44 114 14 114 -9 0 -30 -33 -55 -86z"/>
<path d="M3805 1155 c-85 -30 -113 -119 -56 -176 38 -38 88 -39 148 -4 46 27
48 31 33 55 -8 12 -12 11 -32 -7 -36 -33 -82 -39 -107 -14 -52 52 -7 117 77
114 18 -1 11 41 -8 44 -8 1 -33 -4 -55 -12z"/>
<path d="M2714 1087 c-85 -99 -114 -135 -114 -139 0 -14 42 -14 56 0 14 14 21
14 58 1 29 -10 42 -20 44 -36 3 -19 37 -42 47 -31 2 2 0 48 -5 103 -7 75 -14
103 -27 113 -24 17 -37 15 -59 -11z m40 -53 c8 -22 8 -64 -1 -64 -21 1 -53 13
-53 22 0 13 31 58 40 58 4 0 11 -7 14 -16z"/>
<path d="M3562 1071 c-13 -8 -41 -139 -42 -193 0 -24 3 -26 23 -19 12 4 23 18
25 29 2 12 11 23 20 26 59 15 70 15 86 -3 19 -21 60 -17 52 5 -3 8 -31 47 -62
89 -54 72 -73 85 -102 66z m61 -81 c18 -30 18 -30 -8 -40 -36 -14 -35 -15 -35
30 0 49 18 53 43 10z"/>
<path d="M3412 981 c3 -68 7 -68 -78 12 -52 49 -80 47 -77 -3 7 -162 7 -160
37 -160 21 0 22 3 18 63 l-4 62 53 -50 c30 -27 55 -53 57 -57 2 -5 15 -8 29
-8 26 0 26 1 19 61 -3 34 -6 79 -6 100 0 35 -3 39 -26 39 -25 0 -26 -1 -22
-59z"/>
<path d="M3041 984 c-12 -34 -15 -36 -52 -32 -21 2 -39 1 -39 -1 0 -3 12 -15
27 -27 l28 -22 -17 -36 c-20 -40 -18 -43 17 -20 23 15 65 12 65 -6 0 -4 6 -10
14 -13 11 -4 13 3 9 33 -5 35 -3 40 28 56 l34 19 -40 5 c-36 4 -40 9 -50 43
l-11 38 -13 -37z"/>
<path d="M2161 820 c-28 -44 -51 -84 -51 -88 0 -13 93 -64 126 -69 39 -7 82
20 99 62 25 58 0 102 -86 154 l-37 21 -51 -80z m116 -2 c30 -28 29 -63 -2 -93
-27 -28 -42 -30 -80 -13 -32 14 -31 26 3 82 30 51 45 56 79 24z"/>
<path d="M4146 855 c-19 -14 -19 -16 -1 -115 10 -56 22 -103 26 -105 10 -7 34
26 34 48 0 28 68 66 93 51 18 -12 52 -2 52 15 0 9 -165 121 -177 121 -5 0 -17
-7 -27 -15z m94 -87 c0 -4 -10 -12 -21 -19 -26 -13 -39 1 -39 44 l0 28 30 -23
c17 -12 30 -25 30 -30z"/>
<path d="M4001 756 c-10 -12 -3 -31 35 -95 26 -45 49 -81 51 -81 2 0 13 5 23
10 18 9 16 16 -32 95 -28 47 -54 85 -58 85 -4 0 -13 -6 -19 -14z"/>
<path d="M2371 674 c-35 -70 -41 -88 -30 -95 23 -15 32 -5 78 80 35 67 41 85
30 92 -26 16 -34 9 -78 -77z"/>
<path d="M3866 704 c-22 -8 -41 -16 -43 -18 -3 -2 8 -45 24 -95 24 -78 31 -91
48 -89 20 3 23 16 11 63 -9 35 22 34 58 -4 19 -20 34 -27 51 -23 33 6 32 12
-9 51 -29 29 -33 37 -25 58 7 19 4 29 -16 49 -27 27 -43 29 -99 8z m68 -41 c7
-17 -16 -43 -36 -43 -15 0 -27 44 -14 52 19 13 44 9 50 -9z"/>
<path d="M2504 690 c-59 -24 -73 -112 -26 -160 62 -61 161 -45 190 31 12 33
12 41 -3 72 -26 55 -101 82 -161 57z m106 -48 c19 -16 22 -24 16 -55 -8 -43
-35 -61 -77 -52 -53 12 -72 69 -37 113 15 18 73 15 98 -6z"/>
<path d="M3690 661 c-67 -13 -85 -20 -88 -35 -3 -16 1 -17 36 -11 l40 6 11
-64 c6 -35 11 -71 11 -80 0 -12 8 -17 26 -17 29 0 29 -2 8 126 -6 41 -5 42 25
49 22 5 31 12 31 26 0 10 -3 18 -7 18 -5 -1 -46 -9 -93 -18z"/>
<path d="M2738 636 c-33 -25 -22 -63 27 -98 25 -18 45 -36 45 -40 0 -17 -30
-19 -61 -4 -40 20 -39 20 -39 -4 0 -25 29 -40 78 -40 42 0 72 23 72 54 0 18
-39 61 -75 83 -17 10 -18 14 -6 22 10 6 25 5 47 -4 18 -7 35 -11 38 -7 36 35
-82 72 -126 38z"/>
<path d="M3466 622 c-3 -5 -14 -44 -26 -88 -11 -43 -23 -87 -26 -96 -4 -14 1
-18 20 -18 14 0 26 4 26 9 0 36 101 59 114 26 5 -15 56 -22 56 -8 0 4 -24 46
-52 95 -46 75 -57 87 -80 88 -15 0 -29 -4 -32 -8z m57 -76 c18 -38 14 -46 -20
-46 -25 0 -26 3 -17 49 8 40 16 39 37 -3z"/>
<path d="M2966 565 c29 -47 34 -63 32 -103 -3 -42 -1 -47 18 -50 19 -3 23 3
29 47 5 39 16 61 46 95 21 24 39 47 39 50 0 3 -13 6 -29 6 -20 0 -34 -8 -45
-25 -21 -33 -32 -32 -51 5 -12 23 -22 30 -45 30 l-30 0 36 -55z"/>
<path d="M3240 578 c0 -18 3 -63 7 -100 6 -64 7 -68 31 -68 23 0 24 3 19 36
-6 37 -6 37 45 48 35 8 58 32 58 60 0 39 -30 56 -98 56 l-62 0 0 -32z m108
-24 c2 -16 -3 -23 -22 -26 -31 -6 -36 -2 -36 29 0 21 4 24 28 21 19 -2 28 -9
30 -24z"/>
</g>
</svg>
